HIERARCHY
ROOT joint_0
{
	OFFSET 0.000000 0.000000 0.000000
	CHANNELS 6 Xposition Yposition Zposition Zrotation Yrotation Xrotation 
	JOINT joint_1
	{
		OFFSET 6.590088 -1.122192 114.019043
		CHANNELS 3 Zrotation Yrotation Xrotation
		JOINT joint_2
		{
			OFFSET -5.956055 -0.820435 104.151001
			CHANNELS 3 Zrotation Yrotation Xrotation
			JOINT joint_3
			{
				OFFSET -7.343506 -1.103027 103.942993
				CHANNELS 3 Zrotation Yrotation Xrotation
				JOINT joint_4
				{
					OFFSET 3.109131 -2.857056 147.715942
					CHANNELS 3 Zrotation Yrotation Xrotation
					JOINT joint_5
					{
						OFFSET 28.592285 -2.852295 87.703979
						CHANNELS 3 Zrotation Yrotation Xrotation
						End Site
						{
							OFFSET 0.000000 0.000000 0.000000
						}
					}
				}
				JOINT joint_6
				{
					OFFSET -0.332520 -33.687378 82.401978
					CHANNELS 3 Zrotation Yrotation Xrotation
					JOINT joint_7
					{
						OFFSET -7.397461 -168.719177 -22.750977
						CHANNELS 3 Zrotation Yrotation Xrotation
						JOINT joint_8
						{
							OFFSET 17.065918 -24.903137 -272.721069
							CHANNELS 3 Zrotation Yrotation Xrotation
							JOINT joint_9
							{
								OFFSET 33.311279 -37.031616 -278.192993
								CHANNELS 3 Zrotation Yrotation Xrotation
								End Site
								{
									OFFSET 0.000000 0.000000 0.000000
								}
							}
						}
					}
				}
				JOINT joint_10
				{
					OFFSET 3.914307 30.461670 83.552979
					CHANNELS 3 Zrotation Yrotation Xrotation
					JOINT joint_11
					{
						OFFSET 15.543701 166.845459 -30.963013
						CHANNELS 3 Zrotation Yrotation Xrotation
						JOINT joint_12
						{
							OFFSET 35.734863 35.017700 -269.786011
							CHANNELS 3 Zrotation Yrotation Xrotation
							JOINT joint_13
							{
								OFFSET 70.506592 13.977783 -273.320007
								CHANNELS 3 Zrotation Yrotation Xrotation
								End Site
								{
									OFFSET 0.000000 0.000000 0.000000
								}
							}
						}
					}
				}
			}
		}
	}
	JOINT joint_14
	{
		OFFSET -0.314697 -95.093994 -116.004028
		CHANNELS 3 Zrotation Yrotation Xrotation
		JOINT joint_15
		{
			OFFSET -22.490723 2.017883 -455.510986
			CHANNELS 3 Zrotation Yrotation Xrotation
			JOINT joint_16
			{
				OFFSET -46.427490 7.144104 -496.360985
				CHANNELS 3 Zrotation Yrotation Xrotation
				JOINT joint_17
				{
					OFFSET 209.055420 -37.122803 -85.191002
					CHANNELS 3 Zrotation Yrotation Xrotation
					End Site
					{
						OFFSET 0.000000 0.000000 0.000000
					}
				}
			}
		}
	}
	JOINT joint_18
	{
		OFFSET 5.652832 94.642578 -116.244019
		CHANNELS 3 Zrotation Yrotation Xrotation
		JOINT joint_19
		{
			OFFSET -12.379883 -7.332642 -455.843994
			CHANNELS 3 Zrotation Yrotation Xrotation
			JOINT joint_20
			{
				OFFSET -45.227051 -8.172241 -496.457985
				CHANNELS 3 Zrotation Yrotation Xrotation
				JOINT joint_21
				{
					OFFSET 210.522949 -11.530396 -88.809004
					CHANNELS 3 Zrotation Yrotation Xrotation
					End Site
					{
						OFFSET 0.000000 0.000000 0.000000
					}
				}
			}
		}
	}
}
MOTION
Frames: 13
Frame Time: 0.016667
-2601.332520 988.290466 1184.328003 0.520733 -1.217248 -0.227052 0.397922 1.448789 -0.706435 0.438205 -0.280399 0.170231 0.424828 0.326692 -0.111807 0.015841 2.815889 0.230899 0.000000 0.000000 0.000000 2.623985 0.874018 1.737051 -0.172803 1.294326 0.794878 -0.351246 3.355157 0.991474 0.000000 0.000000 0.000000 -0.290037 0.190743 0.815442 -0.010963 0.356453 -0.406824 0.714948 3.350315 2.131265 0.000000 0.000000 0.000000 -1.000746 -1.179303 -1.336592 -1.018308 0.703348 -0.886196 -1.079117 2.736142 0.047791 0.000000 0.000000 0.000000 2.722535 0.109540 3.220236 2.817885 -1.299343 0.976069 2.752182 2.025849 1.261961 0.000000 0.000000 0.000000 
-2601.514648 988.336609 1184.322998 0.514542 -1.236421 -0.225645 0.384087 1.494008 -0.704781 0.423833 -0.287255 0.167790 0.410976 0.335080 -0.109230 0.035528 2.850632 0.174103 0.000000 0.000000 0.000000 2.631765 0.886230 1.724155 -0.170727 1.308532 0.754458 -0.336721 3.284947 1.027347 0.000000 0.000000 0.000000 -0.278158 0.172541 0.798836 -0.008876 0.332226 -0.378246 0.712576 3.326974 2.125970 0.000000 0.000000 0.000000 -1.008072 -1.185305 -1.334612 -1.024743 0.735439 -0.898622 -1.086930 2.718466 0.041489 0.000000 0.000000 0.000000 2.728879 0.097840 3.217612 2.823301 -1.255282 0.972261 2.757832 2.010551 1.263497 0.000000 0.000000 0.000000 
-2601.674316 988.371277 1184.317017 0.515651 -1.254232 -0.225704 0.371632 1.539509 -0.709097 0.411385 -0.295879 0.169056 0.398632 0.344974 -0.109339 0.052179 2.882434 0.126299 0.000000 0.000000 0.000000 2.637981 0.898315 1.716297 -0.169321 1.322858 0.710866 -0.323384 3.224217 1.065483 0.000000 0.000000 0.000000 -0.271393 0.154195 0.781175 -0.006668 0.308024 -0.342147 0.708240 3.302813 2.113228 0.000000 0.000000 0.000000 -1.016705 -1.187146 -1.331826 -1.032633 0.760302 -0.908015 -1.095765 2.705601 0.035623 0.000000 0.000000 0.000000 2.732009 0.087147 3.216025 2.825577 -1.215653 0.970639 2.760570 1.997805 1.263950 0.000000 0.000000 0.000000 
-2601.801758 988.391602 1184.310059 0.527443 -1.271567 -0.227823 0.360909 1.585139 -0.720327 0.401222 -0.303578 0.172683 0.388262 0.354192 -0.111208 0.064743 2.911950 0.090736 0.000000 0.000000 0.000000 2.637052 0.910525 1.713854 -0.168616 1.336796 0.664578 -0.311654 3.178464 1.108916 0.000000 0.000000 0.000000 -0.274339 0.136682 0.760773 -0.004666 0.284720 -0.290551 0.699172 3.279381 2.081886 0.000000 0.000000 0.000000 -1.027035 -1.180906 -1.328838 -1.042549 0.774218 -0.911797 -1.105881 2.698869 0.030324 0.000000 0.000000 0.000000 2.730404 0.080552 3.216010 2.823314 -1.184182 0.971830 2.759047 1.988421 1.262801 0.000000 0.000000 0.000000 
-2601.906982 988.399414 1184.302979 0.547002 -1.287538 -0.231410 0.351595 1.630812 -0.737503 0.392985 -0.311953 0.179257 0.379479 0.363741 -0.115073 0.074073 2.938224 0.064736 0.000000 0.000000 0.000000 2.633327 0.922613 1.717148 -0.168595 1.350778 0.614001 -0.301054 3.142689 1.155517 0.000000 0.000000 0.000000 -0.282964 0.119176 0.738839 -0.002502 0.261575 -0.230525 0.688008 3.255427 2.042532 0.000000 0.000000 0.000000 -1.038793 -1.170467 -1.324922 -1.054028 0.780776 -0.912635 -1.117129 2.697324 0.025485 0.000000 0.000000 0.000000 2.725294 0.074863 3.217124 2.817618 -1.157095 0.975217 2.754323 1.981737 1.260457 0.000000 0.000000 0.000000 
-2601.978027 988.400940 1184.291992 0.563759 -1.298099 -0.235948 0.344911 1.667766 -0.756121 0.387506 -0.318643 0.185652 0.373463 0.372108 -0.118529 0.080664 2.960602 0.046754 0.000000 0.000000 0.000000 2.632972 0.931468 1.724448 -0.170569 1.362112 0.570506 -0.296941 3.131770 1.177452 0.000000 0.000000 0.000000 -0.290853 0.103149 0.718039 0.000522 0.241159 -0.182543 0.682061 3.235120 2.023034 0.000000 0.000000 0.000000 -1.049268 -1.164400 -1.319623 -1.064165 0.787086 -0.913178 -1.127053 2.696789 0.021361 0.000000 0.000000 0.000000 2.720743 0.067819 3.218088 2.812448 -1.135094 0.981518 2.750271 1.978080 1.258556 0.000000 0.000000 0.000000 
-2602.010010 988.395264 1184.276978 0.574143 -1.301687 -0.241501 0.341720 1.693508 -0.774980 0.385456 -0.322824 0.189442 0.371079 0.377721 -0.120921 0.083266 2.977952 0.040524 0.000000 0.000000 0.000000 2.637807 0.936477 1.736413 -0.175325 1.370344 0.539341 -0.302065 3.153733 1.160934 0.000000 0.000000 0.000000 -0.295315 0.088872 0.700343 0.005061 0.224440 -0.156213 0.685145 3.218745 2.038297 0.000000 0.000000 0.000000 -1.057406 -1.165402 -1.311382 -1.071682 0.794847 -0.916117 -1.134695 2.696050 0.018128 0.000000 0.000000 0.000000 2.717974 0.059165 3.217914 2.808957 -1.119816 0.992635 2.748157 1.977941 1.257652 0.000000 0.000000 0.000000 
-2602.008545 988.382263 1184.258057 0.582790 -1.300092 -0.247921 0.340213 1.711460 -0.795966 0.385303 -0.325897 0.194003 0.370455 0.382149 -0.124110 0.082611 2.990754 0.043840 0.000000 0.000000 0.000000 2.647851 0.937799 1.753392 -0.182127 1.375791 0.514922 -0.313798 3.201367 1.119739 0.000000 0.000000 0.000000 -0.296465 0.076062 0.684632 0.010318 0.210017 -0.141995 0.693329 3.206258 2.072906 0.000000 0.000000 0.000000 -1.064688 -1.170352 -1.301860 -1.078303 0.802065 -0.918496 -1.141412 2.696200 0.015426 0.000000 0.000000 0.000000 2.715347 0.049106 3.217596 2.805577 -1.109307 1.006479 2.746291 1.981071 1.257027 0.000000 0.000000 0.000000 
-2601.983398 988.367798 1184.234985 0.592935 -1.296687 -0.255080 0.339085 1.726427 -0.816014 0.385510 -0.328707 0.198784 0.370210 0.385213 -0.126571 0.081139 3.001926 0.049498 0.000000 0.000000 0.000000 2.658107 0.933858 1.776059 -0.190020 1.376537 0.487408 -0.328964 3.267761 1.072431 0.000000 0.000000 0.000000 -0.300878 0.065028 0.669212 0.014854 0.197990 -0.129049 0.701554 3.202165 2.106067 0.000000 0.000000 0.000000 -1.071270 -1.175923 -1.293282 -1.084416 0.809259 -0.917947 -1.147373 2.698802 0.013466 0.000000 0.000000 0.000000 2.712020 0.038131 3.220641 2.801704 -1.098977 1.016681 2.743573 1.985395 1.256114 0.000000 0.000000 0.000000 
-2601.936035 988.355774 1184.207031 0.607816 -1.290903 -0.262876 0.337105 1.737534 -0.832558 0.384547 -0.330978 0.200936 0.369074 0.389551 -0.127838 0.079072 3.008683 0.056550 0.000000 0.000000 0.000000 2.670243 0.921291 1.806209 -0.199248 1.369732 0.452775 -0.348341 3.360780 1.022199 0.000000 0.000000 0.000000 -0.308597 0.054260 0.654392 0.017623 0.186519 -0.115524 0.708976 3.212709 2.133250 0.000000 0.000000 0.000000 -1.077918 -1.183556 -1.288386 -1.091129 0.818050 -0.910115 -1.153270 2.704175 0.012023 0.000000 0.000000 0.000000 2.707007 0.023959 3.228872 2.796444 -1.086462 1.019599 2.738794 1.991964 1.254467 0.000000 0.000000 0.000000 
-2601.864746 988.342285 1184.175049 0.624516 -1.283235 -0.271340 0.335128 1.745744 -0.848282 0.383570 -0.333865 0.203355 0.367954 0.393681 -0.128496 0.075983 3.013409 0.066532 0.000000 0.000000 0.000000 2.684332 0.903139 1.842130 -0.209650 1.358158 0.414971 -0.371296 3.472982 0.965504 0.000000 0.000000 0.000000 -0.318340 0.045019 0.639964 0.019573 0.176960 -0.103313 0.716459 3.232021 2.158991 0.000000 0.000000 0.000000 -1.083844 -1.191963 -1.284772 -1.097355 0.827063 -0.898821 -1.158383 2.711641 0.011270 0.000000 0.000000 0.000000 2.701169 0.008634 3.240199 2.790539 -1.073872 1.019211 2.733047 1.999881 1.252491 0.000000 0.000000 0.000000 
-2601.768555 988.330322 1184.141968 0.639100 -1.276936 -0.280164 0.332715 1.751956 -0.860956 0.382037 -0.337566 0.206572 0.366147 0.398130 -0.130389 0.073537 3.016620 0.074404 0.000000 0.000000 0.000000 2.699099 0.884936 1.878926 -0.219455 1.346417 0.380916 -0.393133 3.574590 0.905470 0.000000 0.000000 0.000000 -0.323605 0.039832 0.626087 0.021512 0.170555 -0.089821 0.721789 3.247022 2.177115 0.000000 0.000000 0.000000 -1.088501 -1.193915 -1.279090 -1.102093 0.828820 -0.890846 -1.162263 2.722170 0.011561 0.000000 0.000000 0.000000 2.695742 -0.003205 3.250435 2.784990 -1.061625 1.021823 2.727971 2.005700 1.250680 0.000000 0.000000 0.000000 
-2601.642334 988.320984 1184.109985 0.650197 -1.273235 -0.290075 0.330904 1.754156 -0.867382 0.380640 -0.338133 0.206917 0.364779 0.400290 -0.130073 0.072711 3.020870 0.077394 0.000000 0.000000 0.000000 2.710718 0.869429 1.914642 -0.228448 1.336482 0.353878 -0.413147 3.655307 0.835180 0.000000 0.000000 0.000000 -0.326233 0.040169 0.609573 0.024031 0.168698 -0.072608 0.724222 3.253417 2.185512 0.000000 0.000000 0.000000 -1.090963 -1.185313 -1.268736 -1.104152 0.818294 -0.889585 -1.164004 2.739062 0.013850 0.000000 0.000000 0.000000 2.691139 -0.009725 3.258908 2.780140 -1.049681 1.029999 2.724182 2.007566 1.249190 0.000000 0.000000 0.000000 
